<svg width="864" height="883" viewBox="0 0 864 883" fill="none" xmlns="http://www.w3.org/2000/svg">
<g opacity="0.15" filter="url(#filter0_f_2302_8168)">
<ellipse cx="92.2756" cy="877" rx="195.956" ry="189" fill="#81D0AA" fill-opacity="0.4"/>
<path d="M287.732 877C287.732 981.089 200.24 1065.5 92.2756 1065.5C-15.6891 1065.5 -103.181 981.089 -103.181 877C-103.181 772.911 -15.6891 688.5 92.2756 688.5C200.24 688.5 287.732 772.911 287.732 877Z" stroke="white"/>
</g>
<g opacity="0.2" filter="url(#filter1_f_2302_8168)">
<circle cx="640" cy="-127" r="204" fill="#81D0AA" fill-opacity="0.4"/>
<circle cx="640" cy="-127" r="203.5" stroke="white"/>
</g>
<g opacity="0.2" filter="url(#filter2_f_2302_8168)">
<ellipse cx="779.678" cy="925" rx="194.919" ry="188" fill="url(#paint0_linear_2302_8168)"/>
<path d="M974.098 925C974.098 1028.54 887.07 1112.5 779.678 1112.5C672.286 1112.5 585.259 1028.54 585.259 925C585.259 821.463 672.286 737.5 779.678 737.5C887.07 737.5 974.098 821.463 974.098 925Z" stroke="white"/>
</g>
<defs>
<filter id="filter0_f_2302_8168" x="-258.681" y="533" width="701.913" height="688" filterUnits="userSpaceOnUse" color-interpolation-filters="sRGB">
<feFlood flood-opacity="0" result="BackgroundImageFix"/>
<feBlend mode="normal" in="SourceGraphic" in2="BackgroundImageFix" result="shape"/>
<feGaussianBlur stdDeviation="77.5" result="effect1_foregroundBlur_2302_8168"/>
</filter>
<filter id="filter1_f_2302_8168" x="281" y="-486" width="718" height="718" filterUnits="userSpaceOnUse" color-interpolation-filters="sRGB">
<feFlood flood-opacity="0" result="BackgroundImageFix"/>
<feBlend mode="normal" in="SourceGraphic" in2="BackgroundImageFix" result="shape"/>
<feGaussianBlur stdDeviation="77.5" result="effect1_foregroundBlur_2302_8168"/>
</filter>
<filter id="filter2_f_2302_8168" x="331.759" y="484" width="895.839" height="882" filterUnits="userSpaceOnUse" color-interpolation-filters="sRGB">
<feFlood flood-opacity="0" result="BackgroundImageFix"/>
<feBlend mode="normal" in="SourceGraphic" in2="BackgroundImageFix" result="shape"/>
<feGaussianBlur stdDeviation="126.5" result="effect1_foregroundBlur_2302_8168"/>
</filter>
<linearGradient id="paint0_linear_2302_8168" x1="599.401" y1="743.204" x2="1041.45" y2="982.951" gradientUnits="userSpaceOnUse">
<stop stop-color="#54C5D4"/>
<stop offset="0.411458" stop-color="#38BDA0"/>
<stop offset="1" stop-color="#2EB66C"/>
</linearGradient>
</defs>
</svg>
