<svg width="15" height="16" viewBox="0 0 15 16" fill="none" xmlns="http://www.w3.org/2000/svg">
<path fill-rule="evenodd" clip-rule="evenodd" d="M1.0899 1.25328C1.79927 0.437571 2.79057 0 3.92431 0H10.5757C11.7094 0 12.7007 0.437571 13.4101 1.25328C14.1195 2.06899 14.5 3.2089 14.5 4.5126V9.10169C14.5 10.4054 14.1195 11.5453 13.4101 12.361C12.8287 13.0296 12.0578 13.4442 11.1743 13.5719V14.5551C11.1743 15.7201 10.0473 16.4019 9.21319 15.763M9.21268 15.7626L6.40395 13.6143H3.92431C2.79057 13.6143 1.79927 13.1767 1.0899 12.361C0.380527 11.5453 0 10.4054 0 9.10169V4.5126C0 3.2089 0.380527 2.06899 1.0899 1.25328M1.93648 2.22677C1.48186 2.74955 1.19725 3.52176 1.19725 4.5126V9.10169C1.19725 10.0925 1.48186 10.8647 1.93648 11.3875C2.3911 11.9103 3.06264 12.2376 3.92431 12.2376H6.58486C6.70283 12.2376 6.81818 12.2776 6.9164 12.3528L9.87627 14.6167L9.87679 14.6171C9.89157 14.6285 9.90171 14.6304 9.90905 14.6307C9.91848 14.631 9.93074 14.6283 9.94334 14.6206C9.9559 14.6129 9.9643 14.603 9.969 14.5943C9.97254 14.5878 9.97706 14.577 9.97706 14.5551V12.9259C9.97706 12.5458 10.2451 12.2376 10.5757 12.2376C11.4374 12.2376 12.1089 11.9103 12.5635 11.3875C13.0181 10.8647 13.3028 10.0925 13.3028 9.10169V4.5126C13.3028 3.52176 13.0181 2.74955 12.5635 2.22677C12.1089 1.704 11.4374 1.37673 10.5757 1.37673H3.92431C3.06264 1.37673 2.3911 1.704 1.93648 2.22677Z" fill="#626C77"/>
<path fill-rule="evenodd" clip-rule="evenodd" d="M4 6.75C4 6.33579 4.28782 6 4.64286 6H10.3571C10.7122 6 11 6.33579 11 6.75C11 7.16421 10.7122 7.5 10.3571 7.5H4.64286C4.28782 7.5 4 7.16421 4 6.75Z" fill="#626C77"/>
</svg>
