<svg width="23" height="22" viewBox="0 0 23 22" fill="none" xmlns="http://www.w3.org/2000/svg">
<g clip-path="url(#clip0_2308_73887)">
<path d="M20.3625 18.4285C21.5999 17.1009 22.2745 15.4596 22.2745 13.7497C22.2745 11.61 21.2175 9.67235 19.5247 8.29749C19.4861 13.1997 14.876 17.1868 9.21328 17.1868H5.38086C6.86313 19.6315 9.87494 21.3114 13.3379 21.3114H21.587C21.8663 21.3114 22.1155 21.1438 22.2229 20.8861C22.3303 20.6283 22.2702 20.3318 22.0725 20.1385L20.3625 18.4285Z" fill="white"/>
<path d="M9.2131 0.688599C4.28509 0.688599 0.276509 4.07849 0.276509 8.25033C0.276509 9.96031 0.95105 11.5973 2.18842 12.9292L0.478441 14.6391C0.280805 14.8368 0.220655 15.1332 0.328066 15.3867C0.435477 15.6445 0.68467 15.8121 0.963939 15.8121H9.2131C14.1411 15.8121 18.1497 12.4222 18.1497 8.25033C18.1497 4.07849 14.1411 0.688599 9.2131 0.688599Z" fill="white"/>
<path d="M13.338 6.18799H5.0888C4.71071 6.18799 4.40137 6.49733 4.40137 6.87542C4.40137 7.2535 4.71071 7.56285 5.0888 7.56285H13.338C13.716 7.56285 14.0254 7.2535 14.0254 6.87542C14.0254 6.49733 13.716 6.18799 13.338 6.18799Z" fill="white"/>
<path d="M10.5882 8.93774H5.0888C4.71071 8.93774 4.40137 9.24709 4.40137 9.62517C4.40137 10.0033 4.71071 10.3126 5.0888 10.3126H10.5882C10.9663 10.3126 11.2757 10.0033 11.2757 9.62517C11.2757 9.24709 10.9663 8.93774 10.5882 8.93774Z" fill="white"/>
</g>
<defs>
<clipPath id="clip0_2308_73887">
<rect width="22" height="22" fill="white" transform="translate(0.275391)"/>
</clipPath>
</defs>
</svg>
