<svg width="72" height="72" viewBox="0 0 72 72" fill="none" xmlns="http://www.w3.org/2000/svg">
<path fill-rule="evenodd" clip-rule="evenodd" d="M14.793 14.7932C10.8193 18.7669 10.5512 22.6783 10.015 30.501C9.89154 32.303 9.81812 34.1516 9.81812 36.0002C9.81812 37.8488 9.89154 39.6974 10.015 41.4994C10.5512 49.3221 10.8193 53.2335 14.793 57.2071C18.7666 61.1808 22.678 61.4489 30.5008 61.9851C32.3027 62.1086 34.1513 62.182 35.9999 62.182C37.8485 62.182 39.6972 62.1086 41.4991 61.9851C49.3219 61.4489 53.2332 61.1808 57.2069 57.2071C61.1805 53.2335 61.4486 49.3221 61.9848 41.4994C62.1083 39.6974 62.1818 37.8488 62.1818 36.0002C62.1818 34.1516 62.1083 32.303 61.9848 30.501C61.4486 22.6783 61.1805 18.7669 57.2069 14.7932C53.2332 10.8196 49.3219 10.5515 41.4991 10.0153C39.6972 9.89178 37.8485 9.81836 35.9999 9.81836C34.1513 9.81836 32.3027 9.89178 30.5008 10.0153C22.678 10.5515 18.7666 10.8196 14.793 14.7932ZM49.1901 29.5536C50.1487 28.595 50.1487 27.0409 49.1901 26.0823C48.2315 25.1238 46.6774 25.1238 45.7188 26.0823L32.7272 39.074L27.9174 34.2642C26.9588 33.3056 25.4047 33.3056 24.4461 34.2642C23.4876 35.2227 23.4876 36.7768 24.4461 37.7354L30.413 43.7023C31.6911 44.9804 33.7633 44.9804 35.0414 43.7023L49.1901 29.5536Z" fill="#26CD58"/>
</svg>
