<svg width="20" height="21" viewBox="0 0 20 21" fill="none" xmlns="http://www.w3.org/2000/svg">
<rect y="0.828613" width="20" height="20" rx="4" fill="#EEF0F3"/>
<g clip-path="url(#clip0_2425_13597)">
<path d="M12.7206 14.6087C13.0133 14.9014 13.4878 14.9014 13.7805 14.6087C14.0731 14.3161 14.0731 13.8416 13.7805 13.549L11.06 10.8286L13.7805 8.10827C14.0732 7.81562 14.0732 7.34113 13.7805 7.04848C13.4878 6.75583 13.0133 6.75583 12.7207 7.04848L10.0002 9.76884L7.27934 7.0481C6.98667 6.75545 6.51217 6.75545 6.2195 7.0481C5.92683 7.34076 5.92683 7.81524 6.2195 8.1079L8.94035 10.8286L6.21954 13.5493C5.92687 13.842 5.92687 14.3165 6.21954 14.6091C6.5122 14.9018 6.98671 14.9018 7.27937 14.6091L10.0002 11.8884L12.7206 14.6087Z" fill="black"/>
</g>
<defs>
<clipPath id="clip0_2425_13597">
<rect width="16" height="16" fill="white" transform="translate(2 2.82861)"/>
</clipPath>
</defs>
</svg>
