<svg width="14" height="16" viewBox="0 0 14 16" fill="none" xmlns="http://www.w3.org/2000/svg">
<path fill-rule="evenodd" clip-rule="evenodd" d="M5.29617 6.65577C5.51212 6.75801 5.65292 6.99887 5.65292 7.26604V11.6697C5.65292 12.0345 5.39419 12.3303 5.07502 12.3303C4.75585 12.3303 4.49712 12.0345 4.49712 11.6697V8.86075L4.19943 9.20101C3.97375 9.45898 3.60784 9.45898 3.38215 9.20101C3.15647 8.94305 3.15647 8.52481 3.38215 8.26685L4.66638 6.79896C4.83166 6.61004 5.08023 6.55353 5.29617 6.65577Z" fill="#626C77"/>
<path fill-rule="evenodd" clip-rule="evenodd" d="M4.66633 6.79894C4.89202 6.54098 5.25793 6.54098 5.48361 6.79894L6.76784 8.26683C6.99352 8.5248 6.99352 8.94303 6.76784 9.201C6.54215 9.45896 6.17625 9.45896 5.95056 9.201L4.66633 7.7331C4.44065 7.47514 4.44065 7.0569 4.66633 6.79894Z" fill="#626C77"/>
<path fill-rule="evenodd" clip-rule="evenodd" d="M2.03193 2.3203C1.47095 2.9615 1.15776 4.02846 1.15776 5.79818V10.2019C1.15776 11.9716 1.47095 13.0385 2.03193 13.6797C2.5929 14.3209 3.52637 14.6789 5.07465 14.6789H8.92733C10.4756 14.6789 11.4091 14.3209 11.9701 13.6797C12.531 13.0385 12.8442 11.9716 12.8442 10.2019V6.53213C12.8442 6.16731 13.103 5.87157 13.4221 5.87157C13.7413 5.87157 14 6.16731 14 6.53213V10.2019C14 12.1019 13.6711 13.6037 12.7873 14.6139C11.9036 15.6241 10.5896 16 8.92733 16H5.07465C3.41237 16 2.09843 15.6241 1.21465 14.6139C0.33087 13.6037 0.00195312 12.1019 0.00195312 10.2019V5.79818C0.00195312 3.89816 0.33087 2.39631 1.21465 1.38613C2.09843 0.375958 3.41237 0 5.07465 0H8.28522C8.60439 0 8.86312 0.295739 8.86312 0.660552C8.86312 1.02537 8.60439 1.3211 8.28522 1.3211H5.07465C3.52637 1.3211 2.5929 1.67909 2.03193 2.3203Z" fill="#626C77"/>
<path fill-rule="evenodd" clip-rule="evenodd" d="M8.06476 0.0503009C8.2807 -0.0519401 8.52927 0.00457397 8.69455 0.193491L13.8315 6.06507C13.9967 6.25398 14.0462 6.5381 13.9567 6.78493C13.8673 7.03176 13.6566 7.1927 13.4228 7.1927H10.8544C9.85918 7.1927 9.01183 7.01163 8.43912 6.35702C7.86642 5.70241 7.70801 4.73387 7.70801 3.59636V0.660572C7.70801 0.393403 7.84881 0.152542 8.06476 0.0503009ZM8.86381 2.25529V3.59636C8.86381 4.66069 9.02646 5.16004 9.2564 5.42286C9.48634 5.68568 9.92321 5.87159 10.8544 5.87159H12.0276L8.86381 2.25529Z" fill="#626C77"/>
</svg>
