<svg width="17" height="17" viewBox="0 0 17 17" fill="none" xmlns="http://www.w3.org/2000/svg">
<path fill-rule="evenodd" clip-rule="evenodd" d="M7.25756 5.30267C6.7736 5.30267 6.3349 5.72282 6.3349 6.29512C6.3349 6.68487 6.4188 6.86314 6.49308 6.95788C6.57258 7.0593 6.70627 7.14939 6.96948 7.24286L10.0958 8.32892C10.444 8.45234 10.8217 8.63735 11.1006 8.99318C11.3849 9.35588 11.5065 9.81728 11.5065 10.3735C11.5065 11.5379 10.5961 12.5289 9.42079 12.5289H7.47466C6.17349 12.5289 5.17188 11.4352 5.17188 10.1408C5.17188 9.81969 5.43223 9.55934 5.75339 9.55934C6.07455 9.55934 6.3349 9.81969 6.3349 10.1408C6.3349 10.8469 6.86847 11.3659 7.47466 11.3659H9.42079C9.90475 11.3659 10.3435 10.9457 10.3435 10.3735C10.3435 9.9837 10.2595 9.80543 10.1853 9.71069C10.1058 9.60927 9.97208 9.51918 9.70889 9.42572L6.58258 8.33966C6.23434 8.21623 5.8567 8.03123 5.57776 7.6754C5.29344 7.31269 5.17188 6.85129 5.17188 6.29512C5.17188 5.13063 6.08228 4.13965 7.25756 4.13965H9.20369C10.5049 4.13965 11.5065 5.23334 11.5065 6.52772C11.5065 6.84888 11.2461 7.10923 10.925 7.10923C10.6038 7.10923 10.3435 6.84888 10.3435 6.52772C10.3435 5.8217 9.80988 5.30267 9.20369 5.30267H7.25756Z" fill="#292D32"/>
<path fill-rule="evenodd" clip-rule="evenodd" d="M8.33346 3.10205C8.65462 3.10205 8.91498 3.3624 8.91498 3.68356V12.9877C8.91498 13.3089 8.65462 13.5693 8.33346 13.5693C8.0123 13.5693 7.75195 13.3089 7.75195 12.9877V3.68356C7.75195 3.3624 8.0123 3.10205 8.33346 3.10205Z" fill="#292D32"/>
<path fill-rule="evenodd" clip-rule="evenodd" d="M2.25264 2.25264C1.54279 2.9625 1.16302 4.12794 1.16302 6.00895V10.661C1.16302 12.5421 1.54279 13.7075 2.25264 14.4174C2.9625 15.1272 4.12794 15.507 6.00895 15.507H10.661C12.5421 15.507 13.7075 15.1272 14.4174 14.4174C15.1272 13.7075 15.507 12.5421 15.507 10.661V6.00895C15.507 4.12794 15.1272 2.9625 14.4174 2.25264C13.7075 1.54279 12.5421 1.16302 10.661 1.16302H6.00895C4.12794 1.16302 2.9625 1.54279 2.25264 2.25264ZM1.43026 1.43026C2.46494 0.395584 4.01323 0 6.00895 0H10.661C12.6568 0 14.2051 0.395584 15.2397 1.43026C16.2744 2.46494 16.67 4.01323 16.67 6.00895V10.661C16.67 12.6568 16.2744 14.2051 15.2397 15.2397C14.2051 16.2744 12.6568 16.67 10.661 16.67H6.00895C4.01323 16.67 2.46494 16.2744 1.43026 15.2397C0.395584 14.2051 0 12.6568 0 10.661V6.00895C0 4.01323 0.395584 2.46494 1.43026 1.43026Z" fill="#292D32"/>
</svg>
