<svg width="26" height="26" viewBox="0 0 26 26" fill="none" xmlns="http://www.w3.org/2000/svg">
<path d="M20.584 5.41663H17.334V2.16663L20.584 5.41663Z" fill="white"/>
<path d="M12.371 15.8979L10.5496 21.8224L16.4741 20.0078L20.584 15.8911V21.802C20.584 22.9192 19.6699 23.8333 18.5527 23.8333H6.36523C5.24805 23.8333 4.33398 22.9192 4.33398 21.802V4.19788C4.33398 3.08069 5.24805 2.16663 6.36523 2.16663H15.8444V6.22913C15.8444 6.60152 16.1491 6.90621 16.5215 6.90621H20.584V7.976C20.2725 8.09794 19.9882 8.28746 19.7512 8.52451L12.371 15.8979Z" fill="white"/>
<path d="M23.427 11.2833L22.7346 11.9761L16.2011 18.5196L13 19.5L13.9867 16.2973L21.2127 9.06788C21.7475 8.53288 22.6182 8.53288 23.1529 9.06788L23.4271 9.34224C23.9687 9.87724 23.9686 10.7483 23.427 11.2833Z" fill="white"/>
</svg>
