<svg width="26" height="26" viewBox="0 0 26 26" fill="none" xmlns="http://www.w3.org/2000/svg">
<path d="M20.583 5.41663H17.333V2.16663L20.583 5.41663Z" fill="#BBC1C7"/>
<path d="M12.37 15.8979L10.5486 21.8224L16.4731 20.0078L20.583 15.8911V21.802C20.583 22.9192 19.6689 23.8333 18.5518 23.8333H6.36426C5.24707 23.8333 4.33301 22.9192 4.33301 21.802V4.19788C4.33301 3.08069 5.24707 2.16663 6.36426 2.16663H15.8434V6.22913C15.8434 6.60152 16.1481 6.90621 16.5205 6.90621H20.583V7.976C20.2715 8.09794 19.9872 8.28746 19.7502 8.52451L12.37 15.8979Z" fill="#BBC1C7"/>
<path d="M23.427 11.2833L22.7346 11.9761L16.2011 18.5196L13 19.5L13.9867 16.2973L21.2127 9.06788C21.7475 8.53288 22.6182 8.53288 23.1529 9.06788L23.4271 9.34224C23.9687 9.87724 23.9686 10.7483 23.427 11.2833Z" fill="#BBC1C7"/>
</svg>
