<svg width="24" height="24" viewBox="0 0 24 24" fill="none" xmlns="http://www.w3.org/2000/svg">
<path d="M15.6355 6.90944C15.6355 6.47795 15.7635 6.05615 16.0032 5.69738C16.2429 5.33861 16.5836 5.05898 16.9823 4.89385C17.3809 4.72873 17.8196 4.68552 18.2428 4.7697C18.666 4.85388 19.0547 5.06167 19.3598 5.36678C19.6649 5.67189 19.8727 6.06062 19.9569 6.48382C20.0411 6.90702 19.9979 7.34568 19.8328 7.74433C19.6676 8.14297 19.388 8.4837 19.0292 8.72343C18.6705 8.96315 18.2487 9.0911 17.8172 9.0911C17.2386 9.0911 16.6836 8.86125 16.2745 8.45211C15.8654 8.04297 15.6355 7.48805 15.6355 6.90944ZM4.72722 7.63666H13.4539C13.6467 7.63666 13.8317 7.56004 13.9681 7.42366C14.1045 7.28728 14.1811 7.10231 14.1811 6.90944C14.1811 6.71657 14.1045 6.5316 13.9681 6.39522C13.8317 6.25884 13.6467 6.18222 13.4539 6.18222H4.72722C4.53435 6.18222 4.34938 6.25884 4.213 6.39522C4.07662 6.5316 4 6.71657 4 6.90944C4 7.10231 4.07662 7.28728 4.213 7.42366C4.34938 7.56004 4.53435 7.63666 4.72722 7.63666ZM9.09054 9.81832C8.64043 9.81959 8.20173 9.96004 7.83458 10.2204C7.46743 10.4808 7.18981 10.8484 7.03978 11.2728H4.72722C4.53435 11.2728 4.34938 11.3494 4.213 11.4858C4.07662 11.6221 4 11.8071 4 12C4 12.1929 4.07662 12.3778 4.213 12.5142C4.34938 12.6506 4.53435 12.7272 4.72722 12.7272H7.03978C7.17319 13.1045 7.40783 13.4379 7.71802 13.6908C8.0282 13.9437 8.40199 14.1064 8.79846 14.1612C9.19493 14.2159 9.59881 14.1604 9.9659 14.001C10.333 13.8415 10.6491 13.5842 10.8797 13.257C11.1104 12.9299 11.2465 12.5457 11.2734 12.1464C11.3003 11.747 11.2168 11.348 11.032 10.993C10.8473 10.6379 10.5684 10.3406 10.226 10.1334C9.88359 9.92619 9.49076 9.8172 9.09054 9.81832ZM19.2716 11.2728H13.4539C13.261 11.2728 13.076 11.3494 12.9396 11.4858C12.8033 11.6221 12.7266 11.8071 12.7266 12C12.7266 12.1929 12.8033 12.3778 12.9396 12.5142C13.076 12.6506 13.261 12.7272 13.4539 12.7272H19.2716C19.4645 12.7272 19.6495 12.6506 19.7858 12.5142C19.9222 12.3778 19.9988 12.1929 19.9988 12C19.9988 11.8071 19.9222 11.6221 19.7858 11.4858C19.6495 11.3494 19.4645 11.2728 19.2716 11.2728ZM10.545 16.3633H4.72722C4.53435 16.3633 4.34938 16.4399 4.213 16.5763C4.07662 16.7127 4 16.8976 4 17.0905C4 17.2834 4.07662 17.4684 4.213 17.6047C4.34938 17.7411 4.53435 17.8177 4.72722 17.8177H10.545C10.7378 17.8177 10.9228 17.7411 11.0592 17.6047C11.1956 17.4684 11.2722 17.2834 11.2722 17.0905C11.2722 16.8976 11.1956 16.7127 11.0592 16.5763C10.9228 16.4399 10.7378 16.3633 10.545 16.3633ZM19.2716 16.3633H16.9591C16.7875 15.8781 16.4499 15.4691 16.006 15.2087C15.5621 14.9483 15.0405 14.8533 14.5332 14.9403C14.026 15.0273 13.5659 15.2908 13.2342 15.6843C12.9024 16.0778 12.7205 16.5759 12.7205 17.0905C12.7205 17.6052 12.9024 18.1032 13.2342 18.4967C13.5659 18.8902 14.026 19.1537 14.5332 19.2408C15.0405 19.3278 15.5621 19.2327 16.006 18.9723C16.4499 18.7119 16.7875 18.3029 16.9591 17.8177H19.2716C19.4645 17.8177 19.6495 17.7411 19.7858 17.6047C19.9222 17.4684 19.9988 17.2834 19.9988 17.0905C19.9988 16.8976 19.9222 16.7127 19.7858 16.5763C19.6495 16.4399 19.4645 16.3633 19.2716 16.3633Z" fill="#8D969F"/>
</svg>
