<svg width="20" height="20" viewBox="0 0 20 20" fill="none" xmlns="http://www.w3.org/2000/svg">
<path d="M9.99916 18.5714C5.28488 18.5714 1.42773 14.7143 1.42773 10C1.42773 5.28573 5.28488 1.42859 9.99916 1.42859C14.7134 1.42859 18.5706 5.28573 18.5706 10C18.5706 14.7143 14.7134 18.5714 9.99916 18.5714ZM9.99916 2.85716C6.07059 2.85716 2.85631 6.07145 2.85631 10C2.85631 13.9286 6.07059 17.1429 9.99916 17.1429C13.9277 17.1429 17.142 13.9286 17.142 10C17.142 6.07145 13.9277 2.85716 9.99916 2.85716ZM9.99916 15C9.57059 15 9.28488 14.7143 9.28488 14.2857C9.28488 13.8572 9.57059 13.5714 9.99916 13.5714C10.4277 13.5714 10.7134 13.8572 10.7134 14.2857C10.7134 14.7143 10.4277 15 9.99916 15ZM9.99916 12.8572C9.57059 12.8572 9.28488 12.5714 9.28488 12.1429V10C9.28488 9.57145 9.57059 9.28573 9.99916 9.28573C10.7849 9.28573 11.4277 8.64287 11.4277 7.85716C11.4277 7.07145 10.7849 6.42859 9.99916 6.42859C9.21345 6.42859 8.57059 7.07145 8.57059 7.85716C8.57059 8.28573 8.28488 8.57145 7.85631 8.57145C7.42773 8.57145 7.14202 8.28573 7.14202 7.85716C7.14202 6.28573 8.42773 5.00002 9.99916 5.00002C11.5706 5.00002 12.8563 6.28573 12.8563 7.85716C12.8563 9.2143 11.9277 10.2857 10.7134 10.6429V12.1429C10.7134 12.5714 10.4277 12.8572 9.99916 12.8572Z" fill="#1D2023"/>
</svg>
