<svg width="24" height="24" viewBox="0 0 24 24" fill="none" xmlns="http://www.w3.org/2000/svg">
<path fill-rule="evenodd" clip-rule="evenodd" d="M6.14902 0H14.1761L20.9752 7.09344V20.8744C20.9752 22.5996 19.5748 24 17.8496 24H6.14902C4.42386 24 3.02344 22.5996 3.02344 20.8744V3.12558C3.02344 1.40042 4.42386 0 6.14902 0Z" fill="#0AC963"/>
<path opacity="0.302" fill-rule="evenodd" clip-rule="evenodd" d="M14.166 0V7.03255H20.9753L14.166 0Z" fill="white"/>
<path fill-rule="evenodd" clip-rule="evenodd" d="M15.0483 11.9951H8.94934C8.49269 11.9951 8.11719 12.3706 8.11719 12.8273V16.7038C8.11719 17.1604 8.49266 17.5359 8.94934 17.5359H15.0483C15.5049 17.5359 15.8703 17.1605 15.8703 16.7038V12.8272C15.8703 12.3706 15.5049 11.9951 15.0483 11.9951ZM10.6136 13.0404C11.1109 13.0404 11.5066 13.4463 11.5066 13.9334C11.5066 14.4306 11.1109 14.8365 10.6136 14.8365C10.1164 14.8365 9.71044 14.4306 9.71044 13.9334C9.71044 13.4463 10.1164 13.0404 10.6136 13.0404ZM15.3223 16.7038C15.3223 16.856 15.2005 16.9879 15.0483 16.9879H8.94934C8.79711 16.9879 8.67533 16.856 8.67533 16.7038V16.5414L9.78146 15.4353L10.6948 16.3486C10.8064 16.4603 10.9789 16.4603 11.0905 16.3486L13.384 14.0552L15.3223 15.9934V16.7038Z" fill="white"/>
</svg>
