<svg width="24" height="25" viewBox="0 0 24 25" fill="none" xmlns="http://www.w3.org/2000/svg">
<g clip-path="url(#clip0_1724_63660)">
<path d="M13.4996 6.9998C13.4996 7.39762 13.3415 7.77915 13.0602 8.06046C12.7789 8.34176 12.3974 8.4998 11.9996 8.4998C11.6017 8.4998 11.2202 8.34176 10.9389 8.06046C10.6576 7.77915 10.4996 7.39762 10.4996 6.9998C10.4996 6.60197 10.6576 6.22044 10.9389 5.93914C11.2202 5.65783 11.6017 5.4998 11.9996 5.4998C12.3974 5.4998 12.7789 5.65783 13.0602 5.93914C13.3415 6.22044 13.4996 6.60197 13.4996 6.9998ZM23.9996 19.4998V12.8398C24.0369 9.75725 22.9067 6.77469 20.8359 4.49097C18.7651 2.20725 15.9071 0.791436 12.8356 0.527798C11.1212 0.407856 9.4011 0.657538 7.7916 1.25995C6.1821 1.86236 4.72077 2.80345 3.50648 4.01955C2.29219 5.23564 1.35327 6.69836 0.75324 8.30875C0.153213 9.91914 -0.0939187 11.6396 0.028565 13.3538C0.470565 19.7078 6.08157 24.4998 13.0826 24.4998H18.9996C20.3252 24.4982 21.596 23.9709 22.5333 23.0336C23.4707 22.0962 23.998 20.8254 23.9996 19.4998ZM12.6996 2.5238C15.266 2.75084 17.6515 3.94071 19.3767 5.85435C21.1018 7.768 22.0389 10.2636 21.9996 12.8398V19.4998C21.9996 20.2955 21.6835 21.0585 21.1209 21.6211C20.5583 22.1837 19.7952 22.4998 18.9996 22.4998H13.0826C7.04857 22.4998 2.39957 18.5998 2.02457 13.2158C1.92612 11.8444 2.11154 10.4674 2.56925 9.17087C3.02696 7.87434 3.74712 6.68613 4.68474 5.68047C5.62236 4.67481 6.75729 3.87331 8.01863 3.32605C9.27997 2.77878 10.6406 2.49751 12.0156 2.4998C12.2426 2.4998 12.4716 2.5088 12.6996 2.5238ZM13.9996 18.4998V12.4998C13.9996 11.9694 13.7889 11.4607 13.4138 11.0856C13.0387 10.7105 12.53 10.4998 11.9996 10.4998H10.9996C10.7344 10.4998 10.48 10.6052 10.2925 10.7927C10.1049 10.9802 9.99957 11.2346 9.99957 11.4998C9.99957 11.765 10.1049 12.0194 10.2925 12.2069C10.48 12.3944 10.7344 12.4998 10.9996 12.4998H11.9996V18.4998C11.9996 18.765 12.1049 19.0194 12.2925 19.2069C12.48 19.3944 12.7344 19.4998 12.9996 19.4998C13.2648 19.4998 13.5191 19.3944 13.7067 19.2069C13.8942 19.0194 13.9996 18.765 13.9996 18.4998Z" fill="#626C77"/>
</g>
<defs>
<clipPath id="clip0_1724_63660">
<rect width="24" height="24" fill="white" transform="translate(0 0.5)"/>
</clipPath>
</defs>
</svg>
