<svg width="24" height="24" viewBox="0 0 24 24" fill="none" xmlns="http://www.w3.org/2000/svg">
<path d="M12 4C11.5858 4 11.25 4.33579 11.25 4.75V6.25C11.25 6.66421 11.5858 7 12 7C12.4142 7 12.75 6.66421 12.75 6.25V4.75C12.75 4.33579 12.4142 4 12 4Z" fill="#8D969F"/>
<path d="M12 17C11.5858 17 11.25 17.3358 11.25 17.75V19.25C11.25 19.6642 11.5858 20 12 20C12.4142 20 12.75 19.6642 12.75 19.25V17.75C12.75 17.3358 12.4142 17 12 17Z" fill="#8D969F"/>
<path d="M4 12C4 11.5858 4.33578 11.25 4.75 11.25H6.25C6.66421 11.25 7 11.5858 7 12C7 12.4142 6.66421 12.75 6.25 12.75H4.75C4.33578 12.75 4 12.4142 4 12Z" fill="#8D969F"/>
<path d="M17.75 11.25C17.3357 11.25 17 11.5858 17 12C17 12.4142 17.3357 12.75 17.75 12.75H19.25C19.6642 12.75 20 12.4142 20 12C20 11.5858 19.6642 11.25 19.25 11.25H17.75Z" fill="#8D969F"/>
<path d="M6.34271 6.3432C6.04982 6.6361 6.04982 7.11097 6.34271 7.40386L7.40337 8.46452C7.69627 8.75742 8.17114 8.75742 8.46403 8.46452C8.75693 8.17163 8.75693 7.69676 8.46403 7.40386L7.40337 6.3432C7.11048 6.05031 6.63561 6.05031 6.34271 6.3432Z" fill="#8D969F"/>
<path d="M15.5361 15.5356C15.2432 15.8285 15.2432 16.3034 15.5361 16.5963L16.5968 17.6569C16.8897 17.9498 17.3645 17.9498 17.6574 17.6569C17.9503 17.364 17.9503 16.8892 17.6574 16.5963L16.5968 15.5356C16.3039 15.2427 15.829 15.2427 15.5361 15.5356Z" fill="#8D969F"/>
<path d="M6.34271 17.657C6.04982 17.3641 6.04982 16.8892 6.34271 16.5963L7.40337 15.5356C7.69626 15.2427 8.17114 15.2427 8.46403 15.5356C8.75693 15.8285 8.75693 16.3034 8.46403 16.5963L7.40337 17.657C7.11048 17.9498 6.6356 17.9498 6.34271 17.657Z" fill="#8D969F"/>
<path d="M15.5361 7.40387C15.2432 7.69676 15.2432 8.17163 15.5361 8.46453C15.829 8.75742 16.3039 8.75742 16.5967 8.46453L17.6574 7.40387C17.9503 7.11097 17.9503 6.6361 17.6574 6.34321C17.3645 6.05031 16.8896 6.05031 16.5967 6.34321L15.5361 7.40387Z" fill="#8D969F"/>
<path d="M12 15.5C13.933 15.5 15.5 13.933 15.5 12C15.5 10.067 13.933 8.5 12 8.5C10.067 8.5 8.5 10.067 8.5 12C8.5 13.933 10.067 15.5 12 15.5Z" fill="#8D969F"/>
</svg>
