<svg width="20" height="20" viewBox="0 0 20 20" fill="none" xmlns="http://www.w3.org/2000/svg">
<path fill-rule="evenodd" clip-rule="evenodd" d="M9.00024 5.50122C8.57556 5.50122 8.14548 5.51987 7.72287 5.55141C5.87953 5.68896 5.60335 5.76617 5.18415 6.18537C4.76495 6.60457 4.68774 6.88075 4.55019 8.72409C4.51865 9.1467 4.5 9.57678 4.5 10.0015C4.5 10.4261 4.51865 10.8562 4.55019 11.2788C4.68774 13.1222 4.76495 13.3984 5.18415 13.8176C5.60335 14.2368 5.87953 14.314 7.72287 14.4515C8.14548 14.4831 8.57556 14.5017 9.00024 14.5017C9.42493 14.5017 9.85501 14.4831 10.2776 14.4515C11.4942 14.3607 12.0281 14.2962 12.3711 14.1424C12.4324 14.1149 12.4891 14.0764 12.5429 14.032C12.7414 13.8682 12.9735 13.75 13.2308 13.75H13.2492C13.9097 13.75 14.344 14.4112 13.877 14.8782C13.0029 15.7523 12.1317 15.8173 10.3892 15.9474C9.93583 15.9812 9.46804 16.0017 9.00024 16.0017C8.53245 16.0017 8.06466 15.9812 7.61126 15.9474C5.86882 15.8173 4.9976 15.7523 4.12349 14.8782C3.24937 14.0041 3.18436 13.1329 3.05435 11.3905C3.02051 10.9371 3 10.4693 3 10.0015C3 9.53367 3.02051 9.06588 3.05435 8.61248C3.18436 6.87004 3.24937 5.99883 4.12349 5.12471C4.9976 4.25059 5.86882 4.18559 7.61126 4.05557C8.06466 4.02174 8.53245 4.00122 9.00024 4.00122C9.46804 4.00122 9.93583 4.02174 10.3892 4.05557C12.1317 4.18559 13.0029 4.25059 13.877 5.12471C14.3428 5.59048 13.9061 6.25 13.2474 6.25C12.9935 6.25 12.7585 6.13664 12.553 5.98747C12.4066 5.88118 12.2349 5.79561 12 5.74361C11.6487 5.66585 11.1312 5.6151 10.2776 5.55141C9.85501 5.51987 9.42493 5.50122 9.00024 5.50122ZM14.1359 12.5492C13.636 12.8491 13 12.489 13 11.9061C13 11.6426 13.1382 11.3985 13.3641 11.263L13.4202 11.2293L13.4202 11.2293C13.7337 11.0412 13.9749 10.8965 14.151 10.7498H8.75C8.33579 10.7498 8 10.414 8 9.99982C8 9.5856 8.33579 9.24982 8.75 9.24982L14.15 9.24982C13.974 9.10345 13.733 8.95889 13.4202 8.77117L13.3641 8.73754C13.1382 8.602 13 8.35787 13 8.09442C13 7.51145 13.636 7.15136 14.1359 7.4513L14.1919 7.48493C16.064 8.6082 17 9.16983 17 10.0002C17 10.8307 16.064 11.3923 14.1919 12.5156L14.1359 12.5492Z" fill="#1D2023"/>
</svg>
