<svg width="33" height="31" viewBox="0 0 33 31" fill="none" xmlns="http://www.w3.org/2000/svg">
<g id="Clip path group">
<mask id="mask0_1461_3140" style="mask-type:luminance" maskUnits="userSpaceOnUse" x="0" y="0" width="33" height="31">
<g id="clip0_1125_757">
<path id="Vector" d="M32.5 0H0.5V30.7511H32.5V0Z" fill="white"/>
</g>
</mask>
<g mask="url(#mask0_1461_3140)">
<g id="Group">
<path id="Vector_2" d="M32.4995 16.1444C32.5012 15.8859 32.3719 15.6453 32.1586 15.5101H32.1549L32.1415 15.5024L21.0531 8.72185C21.0052 8.68843 20.9555 8.65789 20.9043 8.63036C20.4762 8.40218 19.9676 8.40218 19.5394 8.63036C19.4882 8.65789 19.4385 8.68843 19.3906 8.72185L8.30225 15.5024L8.28888 15.5101C7.94997 15.7279 7.84608 16.1882 8.05682 16.5383C8.11892 16.6414 8.20444 16.7273 8.30598 16.7886L19.3943 23.5692C19.4424 23.6023 19.4921 23.6329 19.5432 23.6607C19.9713 23.8889 20.4799 23.8889 20.908 23.6607C20.9591 23.6329 21.0088 23.6024 21.0569 23.5692L32.1452 16.7886C32.3667 16.6552 32.502 16.4093 32.4995 16.1444Z" fill="#0A2767"/>
<path id="Vector_3" d="M9.59552 11.618H16.8722V18.5085H9.59552V11.618ZM31.0117 4.61365V1.46164C31.0292 0.673577 30.4253 0.0198617 29.6625 0.000976562H10.7795C10.0167 0.0198617 9.41284 0.673577 9.4303 1.46164V4.61365L20.5931 7.68874L31.0117 4.61365Z" fill="#0364B8"/>
<path id="Vector_4" d="M9.42993 4.61328H16.8718V11.5323H9.42993V4.61328Z" fill="#0078D4"/>
<path id="Vector_5" d="M24.3147 4.61328H16.8728V11.5323L24.3147 18.4512H31.0124V11.5323L24.3147 4.61328Z" fill="#28A8EA"/>
<path id="Vector_6" d="M16.8728 11.5317H24.3147V18.4507H16.8728V11.5317Z" fill="#0078D4"/>
<path id="Vector_7" d="M16.8728 18.4509H24.3147V25.3699H16.8728V18.4509Z" fill="#0364B8"/>
<path id="Vector_8" d="M9.5957 18.5078H16.8723V24.7718H9.5957V18.5078Z" fill="#14447D"/>
<path id="Vector_9" d="M24.3135 18.4509H31.0111V25.3699H24.3135V18.4509Z" fill="#0078D4"/>
<path id="Vector_10" d="M32.1587 16.7467L32.1446 16.7544L21.0562 23.1967C21.0078 23.2275 20.9587 23.2567 20.9073 23.2828C20.719 23.3755 20.5145 23.4278 20.3061 23.4366L19.7003 23.0706C19.6491 23.0441 19.5994 23.0146 19.5514 22.9822L8.31425 16.3569H8.30906L7.94141 16.1448V29.1863C7.94716 30.0564 8.63439 30.757 9.47665 30.7515H30.9881C31.0007 30.7515 31.0119 30.7454 31.0253 30.7454C31.2032 30.7336 31.3786 30.6958 31.5462 30.6331C31.6187 30.6014 31.6886 30.5639 31.7553 30.5209C31.8052 30.4917 31.8908 30.4279 31.8908 30.4279C32.272 30.1364 32.4977 29.6762 32.4995 29.1863V16.1448C32.4993 16.3942 32.369 16.6242 32.1587 16.7467Z" fill="url(#paint0_linear_1461_3140)"/>
<path id="Vector_11" opacity="0.5" d="M31.9047 16.0933V16.8928L20.3103 25.1395L8.30662 16.3624C8.30662 16.3581 8.30325 16.3547 8.29916 16.3547L7.19775 15.6705V15.0939L7.65174 15.0862L8.61171 15.6551L8.63404 15.6628L8.7159 15.7166C8.7159 15.7166 19.9977 22.3665 20.0275 22.3819L20.4591 22.6432C20.4963 22.6279 20.5336 22.6125 20.5782 22.5971C20.6005 22.5817 31.7782 16.0856 31.7782 16.0856L31.9047 16.0933Z" fill="#0A2767"/>
<path id="Vector_12" d="M32.1587 16.7467L32.1445 16.7552L21.0562 23.1975C21.0078 23.2282 20.9587 23.2575 20.9073 23.2836C20.4767 23.5009 19.9731 23.5009 19.5425 23.2836C19.4915 23.2575 19.4418 23.2288 19.3936 23.1975L8.30533 16.7552L8.29192 16.7467C8.07784 16.6268 7.94363 16.3963 7.94141 16.1448V29.1863C7.94674 30.0562 8.63373 30.757 9.47587 30.7515H30.965C31.8072 30.7571 32.4942 30.0563 32.4995 29.1863V16.1448C32.4993 16.3942 32.369 16.6242 32.1587 16.7467Z" fill="#1490DF"/>
<path id="Vector_13" opacity="0.1" d="M21.2181 23.1018L21.0521 23.1979C21.004 23.2295 20.9543 23.2586 20.9033 23.2848C20.7204 23.3775 20.5216 23.4318 20.3184 23.4447L24.5371 28.5986L31.8964 30.4305C32.0981 30.2732 32.2584 30.0663 32.363 29.8286L21.2181 23.1018Z" fill="black"/>
<path id="Vector_14" opacity="0.05" d="M21.9697 22.6653L21.0521 23.1981C21.004 23.2297 20.9543 23.2587 20.9033 23.2849C20.7204 23.3776 20.5216 23.432 20.3184 23.4448L22.2949 29.0746L31.8986 30.4284C32.2769 30.1349 32.4997 29.6748 32.4999 29.186V29.0176L21.9697 22.6653Z" fill="black"/>
<path id="Vector_15" d="M9.49677 30.7515H30.9628C31.2931 30.7532 31.6153 30.6454 31.8819 30.444L19.6995 23.0722C19.6483 23.0457 19.5987 23.0162 19.5507 22.9838L8.3135 16.3585H8.3083L7.94141 16.1448V29.1417C7.94059 30.0299 8.63694 30.7506 9.49677 30.7515Z" fill="#28A8EA"/>
<path id="Vector_16" opacity="0.1" d="M18.36 7.55954V23.9576C18.3587 24.5325 18.0203 25.0493 17.5042 25.2645C17.3443 25.3354 17.1722 25.3721 16.9981 25.3721H7.94141V6.91917H9.42979V6.15039H16.9982C17.75 6.15333 18.3584 6.78289 18.36 7.55954Z" fill="black"/>
<path id="Vector_17" opacity="0.2" d="M17.6158 8.32865V24.7266C17.6177 24.9123 17.5796 25.0962 17.5042 25.2648C17.2975 25.791 16.8037 26.1363 16.254 26.1389H7.94141V6.9195H16.254C16.4699 6.91727 16.6827 6.97291 16.8716 7.08095C17.3278 7.31838 17.6157 7.80098 17.6158 8.32865Z" fill="black"/>
<path id="Vector_18" opacity="0.2" d="M17.6158 8.32865V23.1891C17.6122 23.9654 17.0054 24.5946 16.254 24.6013H7.94141V6.9195H16.254C16.4699 6.91727 16.6827 6.97291 16.8716 7.08095C17.3278 7.31838 17.6157 7.80098 17.6158 8.32865Z" fill="black"/>
<path id="Vector_19" opacity="0.2" d="M16.8716 8.32859V23.189C16.8708 23.9665 16.2624 24.5975 15.5098 24.6013H7.94141V6.91943H15.5098C16.2623 6.91984 16.872 7.55041 16.8716 8.32784L16.8716 8.32859Z" fill="black"/>
<path id="Vector_20" d="M1.86409 6.91943H15.508C16.2614 6.91943 16.8721 7.55035 16.8721 8.32859V22.4233C16.8721 23.2016 16.2614 23.8325 15.508 23.8325H1.86409C1.11072 23.8325 0.5 23.2016 0.5 22.4233V8.32859C0.5 7.55035 1.11073 6.91943 1.86409 6.91943Z" fill="url(#paint1_linear_1461_3140)"/>
<path id="Vector_21" d="M4.76389 12.83C5.10011 12.0901 5.64275 11.4708 6.32222 11.0519C7.07469 10.6068 7.93141 10.385 8.79814 10.4107C9.60143 10.3927 10.3941 10.603 11.0895 11.0188C11.7433 11.4216 12.2699 12.0118 12.6054 12.7178C12.9707 13.4957 13.1528 14.3518 13.1367 15.2163C13.1544 16.1197 12.9671 17.0149 12.5897 17.8301C12.2463 18.5613 11.703 19.1726 11.027 19.5883C10.3047 20.0168 9.48265 20.2327 8.65003 20.2126C7.82961 20.233 7.01949 20.0203 6.3081 19.5975C5.64857 19.1942 5.11538 18.6033 4.7721 17.8955C4.40461 17.1288 4.22036 16.2823 4.23478 15.4269C4.21948 14.5312 4.40036 13.6434 4.76389 12.83ZM6.42491 17.0045C6.60416 17.4723 6.90813 17.878 7.30155 18.1745C7.70229 18.4639 8.18211 18.6132 8.67086 18.6005C9.19133 18.6217 9.70438 18.4673 10.1324 18.1607C10.5209 17.8651 10.8169 17.4583 10.9838 16.9906C11.1704 16.4684 11.2625 15.9152 11.2554 15.3585C11.2612 14.7966 11.1746 14.2377 10.9994 13.7057C10.8447 13.2253 10.5582 12.8017 10.1748 12.4864C9.75752 12.1652 9.24588 12.0023 8.72593 12.0251C8.22659 12.0117 7.73601 12.1622 7.32464 12.4549C6.92455 12.7527 6.61482 13.162 6.43162 13.6349C6.02521 14.719 6.02309 15.9204 6.42563 17.006L6.42491 17.0045Z" fill="white"/>
<path id="Vector_22" d="M24.3135 4.61328H31.0111V11.5323H24.3135V4.61328Z" fill="#50D9FF"/>
</g>
</g>
</g>
<defs>
<linearGradient id="paint0_linear_1461_3140" x1="20.2205" y1="16.1448" x2="20.2205" y2="30.7515" gradientUnits="userSpaceOnUse">
<stop stop-color="#35B8F1"/>
<stop offset="1" stop-color="#28A8EA"/>
</linearGradient>
<linearGradient id="paint1_linear_1461_3140" x1="3.34416" y1="5.81835" x2="14.5573" y2="24.6178" gradientUnits="userSpaceOnUse">
<stop stop-color="#1784D9"/>
<stop offset="0.5" stop-color="#107AD5"/>
<stop offset="1" stop-color="#0A63C9"/>
</linearGradient>
</defs>
</svg>
