<svg width="24" height="24" viewBox="0 0 24 24" fill="none" xmlns="http://www.w3.org/2000/svg">
<path fill-rule="evenodd" clip-rule="evenodd" d="M6.14982 0H14.1738L20.9744 7.08846V20.8756C20.9744 22.6027 19.5771 24 17.8559 24H6.14982C4.42269 24 3.02539 22.6027 3.02539 20.8756V3.12443C3.02536 1.3973 4.42266 0 6.14982 0Z" fill="#D8400C"/>
<path opacity="0.302" fill-rule="evenodd" clip-rule="evenodd" d="M14.168 0V7.03449H20.9746L14.168 0Z" fill="white"/>
<path d="M6.49805 17.9072V13.5234H8.36312C8.82489 13.5234 9.19072 13.6494 9.46658 13.9072C9.74243 14.1591 9.88038 14.501 9.88038 14.9267C9.88038 15.3525 9.74243 15.6944 9.46658 15.9462C9.19072 16.2041 8.82489 16.33 8.36312 16.33H7.61949V17.9072H6.49805ZM7.61949 15.3765H8.23719C8.40509 15.3765 8.53703 15.3405 8.627 15.2566C8.71694 15.1786 8.76494 15.0707 8.76494 14.9268C8.76494 14.7829 8.71697 14.6749 8.627 14.5969C8.53706 14.513 8.40512 14.477 8.23719 14.477H7.61949V15.3765ZM10.3421 17.9072V13.5234H11.8953C12.2012 13.5234 12.4891 13.5654 12.7589 13.6554C13.0288 13.7453 13.2747 13.8713 13.4905 14.0452C13.7064 14.2131 13.8803 14.441 14.0063 14.7288C14.1262 15.0167 14.1922 15.3465 14.1922 15.7183C14.1922 16.0842 14.1262 16.414 14.0063 16.7018C13.8803 16.9897 13.7064 17.2176 13.4905 17.3855C13.2746 17.5594 13.0288 17.6853 12.7589 17.7753C12.4891 17.8652 12.2012 17.9072 11.8953 17.9072H10.3421ZM11.4396 16.9537H11.7634C11.9373 16.9537 12.0992 16.9358 12.2492 16.8938C12.3931 16.8518 12.531 16.7858 12.663 16.6959C12.7889 16.6059 12.8908 16.48 12.9628 16.3121C13.0348 16.1442 13.0708 15.9462 13.0708 15.7183C13.0708 15.4845 13.0348 15.2866 12.9628 15.1187C12.8908 14.9508 12.7889 14.8248 12.663 14.7348C12.531 14.6449 12.3931 14.5789 12.2492 14.537C12.0992 14.495 11.9373 14.477 11.7634 14.477H11.4396V16.9537ZM14.7559 17.9072V13.5234H17.8744V14.477H15.8774V15.1786H17.4726V16.1261H15.8774V17.9072H14.7559Z" fill="white"/>
</svg>
