<svg width="20" height="20" viewBox="0 0 20 20" fill="none" xmlns="http://www.w3.org/2000/svg">
<path fill-rule="evenodd" clip-rule="evenodd" d="M14.3496 3.30003C13.6626 3.30003 13.1125 3.85012 13.1125 4.53709C13.1125 5.19597 13.6167 5.72658 14.2561 5.77223C14.3156 5.76743 14.3762 5.76743 14.4357 5.77223C15.0737 5.72664 15.5807 5.19691 15.5866 4.53475C15.5854 3.85454 15.0341 3.30003 14.3496 3.30003ZM11.7871 4.53709C11.7871 3.11812 12.9306 1.97461 14.3496 1.97461C15.7702 1.97461 16.9121 3.12715 16.9121 4.53709V4.54183H16.9121C16.9022 5.92521 15.8129 7.04939 14.4399 7.09914C14.4085 7.10028 14.3771 7.09918 14.3459 7.09587C14.3147 7.09918 14.2833 7.10028 14.252 7.09914C12.8797 7.04942 11.7871 5.92498 11.7871 4.53709Z" fill="#292D32"/>
<path fill-rule="evenodd" clip-rule="evenodd" d="M13.5192 7.57337C14.6608 7.37338 15.9672 7.5624 16.9232 8.19675L16.9244 8.19754L16.9244 8.19754C17.5817 8.63575 17.9982 9.27971 17.9982 10.0081C17.9982 10.7365 17.5817 11.3805 16.9244 11.8187C15.9752 12.4539 14.6841 12.6421 13.5459 12.451C13.1849 12.3904 12.9415 12.0487 13.0021 11.6877C13.0626 11.3267 13.4044 11.0833 13.7653 11.1439C14.6442 11.2914 15.5763 11.1264 16.188 10.7166L16.1892 10.7158C16.5702 10.4619 16.6728 10.1928 16.6728 10.0081C16.6728 9.82353 16.5703 9.5546 16.1898 9.30076C15.57 8.88979 14.6236 8.72551 13.7479 8.87891C13.3874 8.94207 13.0439 8.70101 12.9808 8.3405C12.9176 7.97998 13.1587 7.63653 13.5192 7.57337Z" fill="#292D32"/>
<path fill-rule="evenodd" clip-rule="evenodd" d="M3.0625 4.53709C3.0625 3.12715 4.20433 1.97461 5.62498 1.97461C7.04396 1.97461 8.18746 3.11812 8.18746 4.53709C8.18746 5.92498 7.09486 7.04942 5.72261 7.09914C5.69124 7.10028 5.65985 7.09918 5.62866 7.09587C5.59748 7.09918 5.56609 7.10028 5.53472 7.09914C4.16164 7.04939 3.0724 5.92521 3.06252 4.54183L3.0625 4.53709ZM4.38792 4.53473C4.39385 5.1969 4.90085 5.72664 5.53885 5.77223C5.59837 5.76743 5.65897 5.76743 5.71849 5.77223C6.3579 5.72658 6.86204 5.19597 6.86204 4.53709C6.86204 3.85012 6.31195 3.30003 5.62498 3.30003C4.94048 3.30003 4.3892 3.85453 4.38792 4.53473Z" fill="#292D32"/>
<path fill-rule="evenodd" clip-rule="evenodd" d="M3.78304 9.30074C4.40284 8.88979 5.34926 8.72551 6.22494 8.87891C6.58546 8.94207 6.92891 8.70101 6.99207 8.3405C7.05522 7.97998 6.81417 7.63653 6.45365 7.57337C5.31204 7.37338 4.00558 7.5624 3.04959 8.19675L3.04959 8.19675L3.0484 8.19754C2.39109 8.63575 1.97461 9.27971 1.97461 10.0081C1.97461 10.7363 2.39084 11.3801 3.0478 11.8183C3.99706 12.4538 5.28845 12.6421 6.42693 12.451C6.78788 12.3904 7.03137 12.0487 6.97077 11.6877C6.91017 11.3267 6.56844 11.0833 6.20748 11.1439C5.32861 11.2914 4.39654 11.1264 3.78481 10.7166L3.78361 10.7158C3.40267 10.4619 3.30003 10.1928 3.30003 10.0081C3.30003 9.82353 3.40257 9.55459 3.78304 9.30074Z" fill="#292D32"/>
<path fill-rule="evenodd" clip-rule="evenodd" d="M9.92967 8.8004C9.2427 8.8004 8.69261 9.35049 8.69261 10.0375C8.69261 10.6963 9.19676 11.227 9.83616 11.2726C9.89669 11.2677 9.95835 11.2678 10.0188 11.2728C10.6501 11.2325 11.1608 10.7019 11.1667 10.0351C11.1655 9.3549 10.6142 8.8004 9.92967 8.8004ZM7.36719 10.0375C7.36719 8.61848 8.51069 7.47498 9.92967 7.47498C11.3503 7.47498 12.4922 8.62752 12.4922 10.0375V10.0422H12.4921C12.4823 11.4213 11.3962 12.5596 10.0151 12.5997C9.98536 12.6005 9.95558 12.5994 9.92599 12.5962C9.8948 12.5996 9.86341 12.6006 9.83204 12.5995C8.45979 12.5498 7.36719 11.4253 7.36719 10.0375Z" fill="#292D32"/>
<path fill-rule="evenodd" clip-rule="evenodd" d="M9.99708 13.0079C10.874 13.0079 11.7868 13.226 12.5047 13.7046C13.162 14.1428 13.5785 14.7868 13.5785 15.5152C13.5785 16.2434 13.1622 16.8872 12.5052 17.3254C11.7845 17.8073 10.872 18.028 9.99432 18.028C9.11665 18.028 8.20415 17.8073 7.48342 17.3254C6.82642 16.8872 6.41016 16.2434 6.41016 15.5152C6.41016 14.7868 6.82664 14.1428 7.48395 13.7046L7.48554 13.7036L7.48554 13.7036C8.20626 13.2261 9.11994 13.0079 9.99708 13.0079ZM8.21838 14.808C7.83808 15.0618 7.73558 15.3306 7.73558 15.5152C7.73558 15.6999 7.83822 15.969 8.21916 16.2229L8.21995 16.2235C8.67733 16.5293 9.31841 16.7025 9.99432 16.7025C10.6702 16.7025 11.3113 16.5293 11.7687 16.2235L11.7695 16.2229C12.1504 15.969 12.2531 15.6999 12.2531 15.5152C12.2531 15.3305 12.1504 15.0614 11.7695 14.8074C11.3166 14.5055 10.6757 14.3334 9.99708 14.3334C9.31909 14.3334 8.67576 14.5053 8.21838 14.808Z" fill="#292D32"/>
</svg>
