<svg width="24" height="24" viewBox="0 0 24 24" fill="none" xmlns="http://www.w3.org/2000/svg">
<path d="M9.42857 18.0923V12.88C9.42857 11.199 10.5829 9.73231 12.24 9.32615L15.3943 8.54769C15.7714 8.44615 16.1714 8.40103 16.5714 8.40103C16.9714 8.40103 17.3714 8.44615 17.7486 8.54769L19.7143 9.03282V4.10256C19.7143 2.38769 18.3086 1 16.5714 1H5.14286C3.40571 1 2 2.38769 2 4.10256V19.8974C2 21.6123 3.40571 23 5.14286 23H12.5371L12.4914 22.9774C10.6057 22.041 9.42857 20.1682 9.42857 18.0923ZM6.28571 4.38462H15.4286C15.8971 4.38462 16.2857 4.76821 16.2857 5.23077C16.2857 5.69333 15.8971 6.07692 15.4286 6.07692H6.28571C5.81714 6.07692 5.42857 5.69333 5.42857 5.23077C5.42857 4.76821 5.81714 4.38462 6.28571 4.38462ZM6.28571 7.76923H10.8571C11.3257 7.76923 11.7143 8.15282 11.7143 8.61539C11.7143 9.07795 11.3257 9.46154 10.8571 9.46154H6.28571C5.81714 9.46154 5.42857 9.07795 5.42857 8.61539C5.42857 8.15282 5.81714 7.76923 6.28571 7.76923ZM8.57143 12.8462H6.28571C5.81714 12.8462 5.42857 12.4626 5.42857 12C5.42857 11.5374 5.81714 11.1538 6.28571 11.1538H8.57143C9.04 11.1538 9.42857 11.5374 9.42857 12C9.42857 12.4626 9.04 12.8462 8.57143 12.8462ZM22 12.8811V18.0867C22 19.5263 21.1897 20.8203 19.8857 21.4645L17.9771 22.4066C17.5371 22.6232 17.0537 22.7326 16.5714 22.7326C16.0891 22.7326 15.6057 22.6232 15.1657 22.4066L13.2571 21.4645C11.9531 20.8203 11.1429 19.5263 11.1429 18.0867V12.8811C11.1429 11.9741 11.7657 11.1866 12.6571 10.9654L15.8091 10.1881C16.3086 10.0651 16.8343 10.0651 17.3337 10.1881L20.4857 10.9654C21.3771 11.1854 22 11.9741 22 12.8811Z" fill="#BBC1C7"/>
<path d="M18.7933 14.2253C19.0689 14.5257 19.0689 15.0128 18.7933 15.3132L15.6168 18.7747C15.3411 19.0751 14.8942 19.0751 14.6185 18.7747L13.2067 17.2362C12.9311 16.9358 12.9311 16.4488 13.2067 16.1484C13.4824 15.848 13.9294 15.848 14.205 16.1484L15.1176 17.1429L17.795 14.2253C18.0706 13.9249 18.5176 13.9249 18.7933 14.2253Z" fill="white"/>
</svg>
