<svg width="24" height="25" viewBox="0 0 24 25" fill="none" xmlns="http://www.w3.org/2000/svg">
<g clip-path="url(#clip0_2425_10721)">
<path d="M22.9461 14.4076L21.9476 13.5857C21.2637 13.0227 21.2649 11.9762 21.9477 11.4143L22.9461 10.5924C23.6565 10.0075 23.8383 9.00444 23.3782 8.20733L21.4067 4.79267C20.9465 3.99561 19.9867 3.65155 19.1251 3.97433L17.9141 4.42803C17.0846 4.73872 16.179 4.2147 16.0336 3.34236L15.821 2.0667C15.6697 1.15892 14.8919 0.5 13.9716 0.5H10.0287C9.10828 0.5 8.33044 1.15892 8.17917 2.06675L7.96655 3.34236C7.82091 4.21625 6.91406 4.7382 6.08611 4.42808L4.87509 3.97433C4.01339 3.65155 3.05376 3.99566 2.5935 4.79267L0.622077 8.20728C0.161905 9.0043 0.343593 10.0074 1.05417 10.5924L2.05256 11.4143C2.73656 11.9773 2.7352 13.0237 2.05256 13.5856L1.05412 14.4075C0.343593 14.9925 0.161858 15.9956 0.62203 16.7926L2.5935 20.2073C3.05372 21.0043 4.01316 21.3484 4.87509 21.0256L6.08606 20.5719C6.9157 20.2611 7.82114 20.7855 7.9665 21.6576L8.17912 22.9332C8.33044 23.8411 9.10828 24.5 10.0286 24.5H13.9715C14.8919 24.5 15.6697 23.8411 15.821 22.9333L16.0335 21.6577C16.1791 20.784 17.0859 20.2617 17.914 20.572L19.1251 21.0257C19.987 21.3485 20.9465 21.0044 21.4067 20.2073L23.3782 16.7926C23.8383 15.9956 23.6565 14.9925 22.9461 14.4076ZM19.7829 19.2698L18.5719 18.8161C16.636 18.0909 14.5233 19.3144 14.1841 21.3494L13.9716 22.625H10.0287L9.81605 21.3494C9.47625 19.3105 7.36045 18.0923 5.42831 18.8161L4.2173 19.2698L2.24587 15.8552L3.24426 15.0333C4.84031 13.7194 4.83698 11.2779 3.24426 9.96673L2.24587 9.14483L4.21734 5.73017L5.42831 6.18388C7.36425 6.90903 9.47691 5.68559 9.81605 3.65061L10.0286 2.375H13.9715L14.1841 3.65061C14.5239 5.68977 16.6398 6.90753 18.5718 6.18388L19.7828 5.73017L21.7547 9.14436C21.7547 9.14436 21.7546 9.1445 21.7542 9.14478L20.7559 9.96669C19.1599 11.2805 19.1631 13.722 20.7558 15.0332L21.7543 15.8551L19.7829 19.2698ZM12.0001 7.87498C9.44986 7.87498 7.37508 9.94977 7.37508 12.5C7.37508 15.0502 9.44986 17.125 12.0001 17.125C14.5503 17.125 16.6251 15.0502 16.6251 12.5C16.6251 9.94977 14.5503 7.87498 12.0001 7.87498ZM12.0001 15.25C10.4837 15.25 9.25008 14.0164 9.25008 12.5C9.25008 10.9836 10.4837 9.74998 12.0001 9.74998C13.5165 9.74998 14.7501 10.9836 14.7501 12.5C14.7501 14.0164 13.5165 15.25 12.0001 15.25Z" fill="#626C77"/>
</g>
<defs>
<clipPath id="clip0_2425_10721">
<rect width="24" height="24" fill="white" transform="translate(0 0.5)"/>
</clipPath>
</defs>
</svg>
