<svg width="20" height="20" viewBox="0 0 20 20" fill="none" xmlns="http://www.w3.org/2000/svg">
<path d="M17.5289 11.2717L16.8421 10.7238C16.3717 10.3484 16.3726 9.65081 16.8422 9.27622L17.5289 8.72828C18.0176 8.33831 18.1426 7.66963 17.8261 7.13822L16.4701 4.86178C16.1535 4.33041 15.4934 4.10103 14.9007 4.31622L14.0678 4.61869C13.4972 4.82581 12.8743 4.47647 12.7743 3.89491L12.6281 3.04447C12.524 2.43928 11.9891 2 11.356 2H8.64402C8.01096 2 7.47594 2.43928 7.3719 3.0445L7.22565 3.89491C7.12548 4.4775 6.50173 4.82547 5.93225 4.61872L5.09929 4.31622C4.50659 4.10103 3.84654 4.33044 3.52996 4.86178L2.17398 7.13819C1.85746 7.66953 1.98243 8.33825 2.47118 8.72825L3.15789 9.27619C3.62836 9.65156 3.62743 10.3491 3.15789 10.7238L2.47115 11.2717C1.98243 11.6617 1.85743 12.3304 2.17394 12.8617L3.52996 15.1382C3.84651 15.6695 4.50643 15.8989 5.09929 15.6838L5.93222 15.3813C6.50286 15.1741 7.12564 15.5237 7.22562 16.1051L7.37187 16.9554C7.47594 17.5607 8.01096 18 8.64399 18H11.356C11.989 18 12.524 17.5607 12.6281 16.9555L12.7743 16.1051C12.8744 15.5227 13.4982 15.1745 14.0677 15.3813L14.9007 15.6838C15.4936 15.899 16.1535 15.6696 16.4701 15.1382L17.8261 12.8617C18.1426 12.3304 18.0176 11.6617 17.5289 11.2717ZM15.3532 14.5132L14.5202 14.2107C13.1887 13.7273 11.7355 14.5429 11.5022 15.8996L11.356 16.75H8.64402L8.49778 15.8996C8.26406 14.5403 6.80877 13.7282 5.4798 14.2107L4.64684 14.5132L3.29086 12.2368L3.97757 11.6888C5.07536 10.8129 5.07307 9.18528 3.97757 8.31116L3.29086 7.76322L4.64687 5.48678L5.4798 5.78925C6.81138 6.27269 8.26451 5.45706 8.49778 4.10041L8.64399 3.25H11.356L11.5022 4.10041C11.736 5.45984 13.1913 6.27169 14.5202 5.78925L15.3531 5.48678L16.7094 7.76291C16.7094 7.76291 16.7094 7.763 16.7091 7.76319L16.0224 8.31112C14.9247 9.187 14.9268 10.8147 16.0224 11.6888L16.7091 12.2367L15.3532 14.5132ZM10 6.91666C8.2459 6.91666 6.81883 8.29984 6.81883 10C6.81883 11.7002 8.2459 13.0833 10 13.0833C11.7541 13.0833 13.1812 11.7002 13.1812 10C13.1812 8.29984 11.7541 6.91666 10 6.91666ZM10 11.8333C8.95702 11.8333 8.10849 11.0109 8.10849 10C8.10849 8.98909 8.95702 8.16666 10 8.16666C11.043 8.16666 11.8915 8.98909 11.8915 10C11.8915 11.0109 11.043 11.8333 10 11.8333Z" fill="#1D2023"/>
</svg>
