<svg width="24" height="24" viewBox="0 0 24 24" fill="none" xmlns="http://www.w3.org/2000/svg">
<path fill-rule="evenodd" clip-rule="evenodd" d="M6.14751 0H14.1777L20.9753 7.09195V20.8779C20.9753 22.6023 19.5776 24 17.8531 24H6.14751C4.42305 24 3.02539 22.6023 3.02539 20.8779V3.12212C3.02539 1.39769 4.42305 0 6.14751 0Z" fill="#FF7214"/>
<path opacity="0.302" fill-rule="evenodd" clip-rule="evenodd" d="M14.168 0V7.0337H20.9752L14.168 0Z" fill="white"/>
<path d="M7.76831 16.7979C7.33152 16.7979 6.94653 16.6653 6.61976 16.3967C6.29299 16.1282 6.11505 15.7982 6.08594 15.4067L7.03714 15.1285C7.05979 15.342 7.14391 15.5199 7.2992 15.6623C7.45127 15.8014 7.62272 15.8726 7.81686 15.8726C7.97864 15.8726 8.10803 15.837 8.20834 15.7658C8.30541 15.6946 8.35717 15.604 8.35717 15.4876C8.35717 15.3937 8.31511 15.3129 8.23745 15.2449C8.15979 15.1802 8.05627 15.1252 7.93333 15.0864C7.80715 15.0443 7.66478 15.0023 7.51274 14.9602C7.35745 14.9214 7.20213 14.8664 7.05009 14.8017C6.89801 14.7337 6.75892 14.6561 6.63274 14.5655C6.50656 14.4749 6.40303 14.3487 6.32538 14.1837C6.24772 14.0219 6.2089 13.831 6.2089 13.611C6.2089 13.2584 6.36098 12.9607 6.66185 12.7245C6.96597 12.4883 7.33158 12.3687 7.76188 12.3687C8.18572 12.3687 8.55779 12.4722 8.87162 12.6793C9.18868 12.8831 9.38603 13.1549 9.46369 13.4881L8.47367 13.9022C8.42837 13.7178 8.34425 13.569 8.21807 13.4622C8.09514 13.3522 7.94307 13.2972 7.76188 13.2972C7.62275 13.2972 7.51277 13.3231 7.43187 13.3814C7.35099 13.4364 7.30893 13.5108 7.30893 13.6046C7.30893 13.6984 7.36394 13.7728 7.47071 13.8278C7.57748 13.8861 7.71012 13.9282 7.86865 13.9573C8.02718 13.9832 8.20188 14.0284 8.38631 14.0899C8.57396 14.1514 8.74544 14.2258 8.90397 14.3196C9.0625 14.4102 9.19514 14.5526 9.30191 14.7467C9.40868 14.944 9.46369 15.1802 9.46369 15.4552C9.46369 15.8564 9.3084 16.1799 8.99779 16.4291C8.68391 16.675 8.27627 16.7979 7.76831 16.7979ZM11.0587 16.7494L9.53159 12.4172H10.6575L11.5796 15.4132L12.5146 12.4172H13.634L12.1069 16.7494H11.0587ZM15.7888 16.7979C15.1902 16.7979 14.6823 16.6038 14.2617 16.2188C13.8443 15.8306 13.634 15.287 13.634 14.5849C13.634 14.1093 13.7408 13.7017 13.9575 13.3587C14.1711 13.0158 14.4429 12.7667 14.7761 12.6081C15.1093 12.4496 15.4749 12.3687 15.8794 12.3687C16.4423 12.3687 16.9017 12.5013 17.2576 12.7667C17.6135 13.0352 17.8335 13.4072 17.9176 13.8861L16.8273 14.1061C16.782 13.8634 16.672 13.6693 16.4973 13.527C16.3226 13.3814 16.1123 13.3102 15.8696 13.3102C15.5299 13.3102 15.2581 13.4234 15.0478 13.6532C14.8408 13.8829 14.734 14.1935 14.734 14.585C14.734 14.9764 14.8375 15.2871 15.0446 15.5168C15.2517 15.7433 15.5202 15.8597 15.8502 15.8597C16.1026 15.8597 16.3129 15.8015 16.4876 15.6818C16.6591 15.5653 16.7626 15.41 16.795 15.2224H15.7273V14.3552H17.8174V16.7494H16.8079V16.3676C16.7238 16.497 16.5847 16.6038 16.4003 16.6814C16.2159 16.759 16.012 16.7979 15.7888 16.7979Z" fill="white"/>
</svg>
