<svg width="24" height="24" viewBox="0 0 24 24" fill="none" xmlns="http://www.w3.org/2000/svg">
<path fill-rule="evenodd" clip-rule="evenodd" d="M10.3266 3C9.79072 3 9.3563 3.43281 9.3563 3.96671V5.90013C9.3563 6.43403 9.79072 6.86684 10.3266 6.86684C10.8625 6.86684 11.2969 6.43403 11.2969 5.90013V3.96671C11.2969 3.43281 10.8625 3 10.3266 3ZM18.0891 12.6671C17.5531 12.6671 17.1188 13.0999 17.1188 13.6338C17.1188 14.1677 17.5531 14.6005 18.0891 14.6005H20.0297C20.5656 14.6005 21 14.1677 21 13.6338C21 13.0999 20.5656 12.6671 20.0297 12.6671H18.0891ZM3.2842 7.50119C2.90527 7.12367 2.90527 6.51158 3.2842 6.13405C3.66312 5.75653 4.27748 5.75653 4.65642 6.13405L6.02863 7.50119C6.40756 7.87872 6.40756 8.4908 6.02863 8.86832C5.6497 9.24586 5.03534 9.24586 4.65642 8.86832L3.2842 7.50119ZM15.1768 17.9826C14.7978 18.3601 14.7978 18.9721 15.1768 19.3497L16.5489 20.7169C16.9278 21.0944 17.5422 21.0944 17.9212 20.7169C18.3001 20.3393 18.3001 19.7272 17.9212 19.3497L16.5489 17.9826C16.1701 17.6051 15.5557 17.6051 15.1768 17.9826ZM14.948 8.64048C14.5691 8.26294 14.5691 7.65086 14.948 7.27334L16.3203 5.9062C16.6992 5.52867 17.3135 5.52867 17.6924 5.9062C18.0714 6.28372 18.0714 6.89581 17.6924 7.27334L16.3203 8.64048C15.9414 9.018 15.327 9.018 14.948 8.64048ZM14.5321 16.3468C14.6494 16.5394 14.9571 16.5976 15.0716 16.4034C15.5504 15.5908 15.825 14.6443 15.825 13.6339C15.825 10.6084 13.3633 8.15584 10.3266 8.15584C9.31286 8.15584 8.3632 8.42918 7.54781 8.9059C7.35321 9.01966 7.41085 9.325 7.60333 9.44225C7.75404 9.53405 7.88819 9.64859 7.99959 9.7792C8.39379 10.2413 8.52839 10.9145 8.27112 11.5333C7.59052 13.1704 7.84161 14.5764 8.60906 15.3409C9.3765 16.1055 10.7877 16.3557 12.4308 15.6776C13.0521 15.4213 13.7276 15.5554 14.1914 15.9481C14.3237 16.0601 14.4395 16.1951 14.5321 16.3468ZM6.62083 10.5245C6.93191 10.3882 7.20588 10.7273 7.07585 11.0401C6.27014 12.9781 6.43532 14.9981 7.69424 16.2524C8.95317 17.5066 10.9806 17.6712 12.9259 16.8684C13.2399 16.7389 13.5802 17.0119 13.4434 17.3219C13.1922 17.8912 12.8326 18.4245 12.3646 18.8907C10.3437 20.9041 7.06707 20.9041 5.04612 18.8907C3.02518 16.8772 3.02518 13.6128 5.04612 11.5993C5.51409 11.1331 6.04939 10.7748 6.62083 10.5245Z" fill="#8D969F"/>
</svg>
