<svg width="20" height="20" viewBox="0 0 20 20" fill="none" xmlns="http://www.w3.org/2000/svg">
<path d="M13.491 1.66663H6.50768C3.47435 1.66663 1.66602 3.47496 1.66602 6.50829V13.4916C1.66602 15.8333 2.74102 17.4416 4.63268 18.05C5.18268 18.2416 5.81602 18.3333 6.50768 18.3333H13.491C14.1827 18.3333 14.816 18.2416 15.366 18.05C17.2577 17.4416 18.3327 15.8333 18.3327 13.4916V6.50829C18.3327 3.47496 16.5243 1.66663 13.491 1.66663ZM17.0827 13.4916C17.0827 15.275 16.3827 16.4 14.9743 16.8666C14.166 15.275 12.2493 14.1416 9.99935 14.1416C7.74935 14.1416 5.84102 15.2666 5.02435 16.8666H5.01602C3.62435 16.4166 2.91602 15.2833 2.91602 13.5V6.50829C2.91602 4.15829 4.15768 2.91663 6.50768 2.91663H13.491C15.841 2.91663 17.0827 4.15829 17.0827 6.50829V13.4916Z" fill="#292D32"/>
<path d="M9.99896 6.66663C8.34896 6.66663 7.01562 7.99996 7.01562 9.64996C7.01562 11.3 8.34896 12.6416 9.99896 12.6416C11.649 12.6416 12.9823 11.3 12.9823 9.64996C12.9823 7.99996 11.649 6.66663 9.99896 6.66663Z" fill="#292D32"/>
</svg>
