<svg width="24" height="24" viewBox="0 0 24 24" fill="none" xmlns="http://www.w3.org/2000/svg">
<path d="M6.14401 0H14.1763L20.9761 7.09058V20.8794C20.9761 22.6013 19.5774 24 17.8509 24H6.14404C4.42216 24 3.02344 22.6013 3.02344 20.8794V3.12061C3.02341 1.39872 4.42213 0 6.14401 0Z" fill="#0263D1"/>
<path opacity="0.302" fill-rule="evenodd" clip-rule="evenodd" d="M14.168 0V7.03521H20.977L14.168 0Z" fill="white"/>
<path d="M15.1645 12.4871H8.83557C8.54473 12.4871 8.30469 12.2516 8.30469 11.9608C8.30469 11.67 8.54473 11.4346 8.83557 11.4346H15.1645C15.4553 11.4346 15.6907 11.67 15.6907 11.9608C15.6907 12.2516 15.4553 12.4871 15.1645 12.4871ZM13.0548 18.816H8.83557C8.54473 18.816 8.30469 18.5805 8.30469 18.2897C8.30469 17.9989 8.54473 17.7635 8.83557 17.7635H13.0548C13.3457 17.7635 13.5811 17.9989 13.5811 18.2897C13.5811 18.5805 13.3457 18.816 13.0548 18.816ZM15.1645 16.7063H8.83557C8.54473 16.7063 8.30469 16.4709 8.30469 16.1801C8.30469 15.8893 8.54473 15.6538 8.83557 15.6538H15.1645C15.4553 15.6538 15.6907 15.8893 15.6907 16.1801C15.6907 16.4709 15.4553 16.7063 15.1645 16.7063ZM15.1645 14.5967H8.83557C8.54473 14.5967 8.30469 14.3613 8.30469 14.0704C8.30469 13.7796 8.54473 13.5442 8.83557 13.5442H15.1645C15.4553 13.5442 15.6907 13.7796 15.6907 14.0704C15.6907 14.3613 15.4553 14.5967 15.1645 14.5967Z" fill="white"/>
</svg>
